<mxfile host="app.diagrams.net" modified="2023-08-03T15:46:40.640Z" agent="Mozilla/5.0 (Windows NT 10.0; Win64; x64) AppleWebKit/537.36 (KHTML, like Gecko) Chrome/115.0.0.0 Safari/537.36" etag="MFbA3_EiBAHcOMAOs502" version="21.6.6" type="device">
  <diagram name="Page-1" id="2ca16b54-16f6-2749-3443-fa8db7711227">
    <mxGraphModel dx="4928" dy="1739" grid="1" gridSize="10" guides="1" tooltips="1" connect="1" arrows="1" fold="1" page="1" pageScale="1" pageWidth="1100" pageHeight="850" background="none" math="0" shadow="0">
      <root>
        <mxCell id="0" />
        <mxCell id="1" parent="0" />
        <mxCell id="s3C25jFBt-9yLEdoIZRi-40" style="edgeStyle=orthogonalEdgeStyle;rounded=0;orthogonalLoop=1;jettySize=auto;html=1;entryX=-0.002;entryY=0.422;entryDx=0;entryDy=0;entryPerimeter=0;labelBackgroundColor=none;fontColor=default;strokeColor=#23445D;" edge="1" parent="1" target="s3C25jFBt-9yLEdoIZRi-39">
          <mxGeometry relative="1" as="geometry">
            <mxPoint x="-1500" y="-160" as="sourcePoint" />
          </mxGeometry>
        </mxCell>
        <mxCell id="s3C25jFBt-9yLEdoIZRi-51" style="edgeStyle=orthogonalEdgeStyle;rounded=0;orthogonalLoop=1;jettySize=auto;html=1;exitX=0.5;exitY=0;exitDx=0;exitDy=0;entryX=0.5;entryY=1;entryDx=0;entryDy=0;labelBackgroundColor=none;fontColor=default;strokeColor=#23445D;" edge="1" parent="1" source="2ed32ef02a7f4228-1" target="2ed32ef02a7f4228-7">
          <mxGeometry relative="1" as="geometry" />
        </mxCell>
        <mxCell id="s3C25jFBt-9yLEdoIZRi-83" style="edgeStyle=orthogonalEdgeStyle;rounded=0;orthogonalLoop=1;jettySize=auto;html=1;exitX=1;exitY=0.5;exitDx=0;exitDy=0;entryX=0;entryY=0.5;entryDx=0;entryDy=0;strokeColor=#23445D;" edge="1" parent="1" source="2ed32ef02a7f4228-1" target="s3C25jFBt-9yLEdoIZRi-55">
          <mxGeometry relative="1" as="geometry" />
        </mxCell>
        <mxCell id="2ed32ef02a7f4228-1" value="&lt;div data-darkreader-inline-bgcolor=&quot;&quot; data-darkreader-inline-bgimage=&quot;&quot; style=&quot;box-sizing: border-box; width: 100%; background: rgb(228, 228, 228); padding: 2px; --darkreader-inline-bgimage: initial; --darkreader-inline-bgcolor: #272b2c;&quot;&gt;User&lt;/div&gt;&lt;table style=&quot;width:100%;font-size:1em;&quot; cellpadding=&quot;2&quot; cellspacing=&quot;0&quot;&gt;&lt;tbody&gt;&lt;tr&gt;&lt;td&gt;&lt;br&gt;&lt;/td&gt;&lt;td&gt;_id: Type.id &amp;lt;PK&amp;gt;&lt;br&gt;firstName: string&lt;/td&gt;&lt;/tr&gt;&lt;tr&gt;&lt;td&gt;&lt;br&gt;&lt;/td&gt;&lt;td&gt;lastName: string&lt;/td&gt;&lt;/tr&gt;&lt;tr&gt;&lt;td&gt;&lt;/td&gt;&lt;td&gt;phoneNumber: string&lt;br&gt;email: string&lt;br&gt;password: string&lt;br&gt;criticalChangeAt: Date&amp;nbsp; &amp;nbsp; &amp;nbsp;&amp;nbsp;&lt;br&gt;address?: Type.id&lt;br&gt;paymentMethod?: enum&lt;br&gt;walletBalance: number&lt;br&gt;bio?: string&lt;br&gt;website?: string&lt;br&gt;company?: string&lt;br&gt;role: enum&lt;br&gt;isEmailVerified: boolean&lt;br&gt;avatar: string&lt;br&gt;services: categoryIds[]&lt;br&gt;&lt;br&gt;&lt;/td&gt;&lt;td&gt;&lt;br&gt;&lt;/td&gt;&lt;td&gt;&lt;br&gt;&lt;/td&gt;&lt;td&gt;&lt;br&gt;&lt;/td&gt;&lt;td&gt;&lt;br&gt;&lt;/td&gt;&lt;/tr&gt;&lt;/tbody&gt;&lt;/table&gt;" style="verticalAlign=top;align=left;overflow=fill;html=1;rounded=0;shadow=0;comic=0;labelBackgroundColor=none;strokeWidth=1;fontFamily=Verdana;fontSize=12;fillColor=#182E3E;strokeColor=#FFFFFF;fontColor=#FFFFFF;" parent="1" vertex="1">
          <mxGeometry x="-1690" y="-380" width="190" height="290" as="geometry" />
        </mxCell>
        <mxCell id="s3C25jFBt-9yLEdoIZRi-57" style="edgeStyle=orthogonalEdgeStyle;rounded=0;orthogonalLoop=1;jettySize=auto;html=1;exitX=0;exitY=0.5;exitDx=0;exitDy=0;entryX=1;entryY=0.5;entryDx=0;entryDy=0;labelBackgroundColor=none;fontColor=default;strokeColor=#23445D;" edge="1" parent="1" source="2ed32ef02a7f4228-2" target="2ed32ef02a7f4228-8">
          <mxGeometry relative="1" as="geometry" />
        </mxCell>
        <mxCell id="2ed32ef02a7f4228-2" value="&lt;div data-darkreader-inline-bgcolor=&quot;&quot; data-darkreader-inline-bgimage=&quot;&quot; style=&quot;box-sizing: border-box; width: 100%; background: rgb(228, 228, 228); padding: 2px; --darkreader-inline-bgimage: initial; --darkreader-inline-bgcolor: #272b2c;&quot;&gt;Product&amp;nbsp;&lt;br&gt;&lt;/div&gt;&lt;table style=&quot;width: 100% ; font-size: 1em&quot; cellpadding=&quot;2&quot; cellspacing=&quot;0&quot;&gt;&lt;tbody&gt;&lt;tr&gt;&lt;td&gt;&lt;br&gt;&lt;/td&gt;&lt;td&gt;_id: Type.id &amp;lt;PK&amp;gt;&lt;br&gt;name: string&lt;br&gt;description: string&lt;br&gt;mainImage: string&lt;br&gt;images: string[]&lt;br&gt;mainCategory: Type.id &amp;lt;FK1&amp;gt;&lt;br&gt;supCategory: Type.id &amp;lt;FK2&amp;gt;&lt;br&gt;vendor: Type.id &amp;lt;FK3&amp;gt;&lt;br&gt;ratingsCount: number&lt;br&gt;&lt;/td&gt;&lt;/tr&gt;&lt;tr&gt;&lt;td&gt;&lt;br&gt;&lt;/td&gt;&lt;td&gt;&lt;br&gt;&lt;br&gt;&lt;/td&gt;&lt;td&gt;&lt;br&gt;&lt;/td&gt;&lt;td&gt;&lt;br&gt;&lt;/td&gt;&lt;td&gt;&lt;br&gt;&lt;/td&gt;&lt;td&gt;&lt;br&gt;&lt;/td&gt;&lt;td&gt;&lt;br&gt;&lt;/td&gt;&lt;td&gt;&lt;br&gt;&lt;/td&gt;&lt;td&gt;&lt;br&gt;&lt;/td&gt;&lt;td&gt;&lt;br&gt;&lt;/td&gt;&lt;td&gt;&lt;br&gt;&lt;/td&gt;&lt;/tr&gt;&lt;/tbody&gt;&lt;/table&gt;" style="verticalAlign=top;align=left;overflow=fill;html=1;rounded=0;shadow=0;comic=0;labelBackgroundColor=none;strokeWidth=1;fontFamily=Verdana;fontSize=12;fillColor=#182E3E;strokeColor=#FFFFFF;fontColor=#FFFFFF;" parent="1" vertex="1">
          <mxGeometry x="-1400" y="32.5" width="200" height="210" as="geometry" />
        </mxCell>
        <mxCell id="s3C25jFBt-9yLEdoIZRi-88" style="edgeStyle=orthogonalEdgeStyle;rounded=0;orthogonalLoop=1;jettySize=auto;html=1;exitX=1;exitY=0.5;exitDx=0;exitDy=0;entryX=0;entryY=0.25;entryDx=0;entryDy=0;strokeColor=#23445D;" edge="1" parent="1" source="2ed32ef02a7f4228-3" target="s3C25jFBt-9yLEdoIZRi-7">
          <mxGeometry relative="1" as="geometry" />
        </mxCell>
        <mxCell id="2ed32ef02a7f4228-3" value="&lt;div data-darkreader-inline-bgcolor=&quot;&quot; data-darkreader-inline-bgimage=&quot;&quot; style=&quot;box-sizing: border-box; width: 100%; background: rgb(228, 228, 228); padding: 2px; --darkreader-inline-bgimage: initial; --darkreader-inline-bgcolor: #272b2c;&quot;&gt;Cart&lt;br&gt;&lt;/div&gt;&lt;table style=&quot;width: 100% ; font-size: 1em&quot; cellpadding=&quot;2&quot; cellspacing=&quot;0&quot;&gt;&lt;tbody&gt;&lt;tr&gt;&lt;td&gt;&lt;br&gt;&lt;/td&gt;&lt;td&gt;_id: Type.id &amp;lt;PK&amp;gt;&lt;br&gt;&lt;/td&gt;&lt;/tr&gt;&lt;tr&gt;&lt;td style=&quot;&quot;&gt;&lt;br&gt;&lt;/td&gt;&lt;td&gt;userId: Type.id &amp;lt;FK1&amp;gt;&lt;br&gt;products: ItemsIds[]&lt;br&gt;totalQuantity: number&lt;br&gt;productsPrice: number&amp;nbsp;&lt;br&gt;taxPrice: number&lt;br data-darkreader-inline-border=&quot;&quot; style=&quot;border-color: var(--darkreader-border--border-color); --darkreader-inline-border: var(--darkreader-border--darkreader-border--border-color);&quot;&gt;shippingPrice: number&lt;br&gt;&lt;/td&gt;&lt;td&gt;&lt;br&gt;&lt;/td&gt;&lt;td&gt;&lt;/td&gt;&lt;td&gt;&lt;/td&gt;&lt;td&gt;&lt;/td&gt;&lt;td&gt;&lt;/td&gt;&lt;td&gt;&lt;br&gt;&lt;/td&gt;&lt;/tr&gt;&lt;/tbody&gt;&lt;/table&gt;" style="verticalAlign=top;align=left;overflow=fill;html=1;rounded=0;shadow=0;comic=0;labelBackgroundColor=none;strokeWidth=1;fontFamily=Verdana;fontSize=12;fillColor=#182E3E;strokeColor=#FFFFFF;fontColor=#FFFFFF;" parent="1" vertex="1">
          <mxGeometry x="-2560" y="-600" width="180" height="140" as="geometry" />
        </mxCell>
        <mxCell id="s3C25jFBt-9yLEdoIZRi-44" style="edgeStyle=orthogonalEdgeStyle;rounded=0;orthogonalLoop=1;jettySize=auto;html=1;exitX=0;exitY=0.5;exitDx=0;exitDy=0;entryX=1;entryY=0.5;entryDx=0;entryDy=0;labelBackgroundColor=none;fontColor=default;strokeColor=#23445D;" edge="1" parent="1" source="2ed32ef02a7f4228-5" target="s3C25jFBt-9yLEdoIZRi-43">
          <mxGeometry relative="1" as="geometry" />
        </mxCell>
        <mxCell id="s3C25jFBt-9yLEdoIZRi-76" style="edgeStyle=orthogonalEdgeStyle;rounded=0;orthogonalLoop=1;jettySize=auto;html=1;exitX=0.5;exitY=0;exitDx=0;exitDy=0;entryX=0.576;entryY=1.009;entryDx=0;entryDy=0;entryPerimeter=0;strokeColor=#23445D;" edge="1" parent="1" source="2ed32ef02a7f4228-5" target="s3C25jFBt-9yLEdoIZRi-7">
          <mxGeometry relative="1" as="geometry" />
        </mxCell>
        <mxCell id="s3C25jFBt-9yLEdoIZRi-86" style="edgeStyle=orthogonalEdgeStyle;rounded=0;orthogonalLoop=1;jettySize=auto;html=1;exitX=1;exitY=0.25;exitDx=0;exitDy=0;entryX=-0.014;entryY=0.093;entryDx=0;entryDy=0;entryPerimeter=0;strokeColor=#23445D;" edge="1" parent="1" source="2ed32ef02a7f4228-5" target="2ed32ef02a7f4228-1">
          <mxGeometry relative="1" as="geometry" />
        </mxCell>
        <mxCell id="2ed32ef02a7f4228-5" value="&lt;div data-darkreader-inline-bgcolor=&quot;&quot; data-darkreader-inline-bgimage=&quot;&quot; style=&quot;box-sizing: border-box; width: 100%; background: rgb(228, 228, 228); padding: 2px; --darkreader-inline-bgimage: initial; --darkreader-inline-bgcolor: #272b2c;&quot;&gt;Order&lt;br&gt;&lt;/div&gt;&lt;table style=&quot;width:100%;font-size:1em;&quot; cellpadding=&quot;2&quot; cellspacing=&quot;0&quot;&gt;&lt;tbody&gt;&lt;tr&gt;&lt;td&gt;&lt;br&gt;&lt;/td&gt;&lt;td&gt;_id: Type.id &amp;lt;PK&amp;gt;&lt;br&gt;&lt;/td&gt;&lt;/tr&gt;&lt;tr&gt;&lt;td&gt;&lt;br&gt;&lt;/td&gt;&lt;td&gt;userId: Type.id &amp;lt;FK1&amp;gt;&amp;nbsp;&lt;br&gt;&lt;/td&gt;&lt;/tr&gt;&lt;tr&gt;&lt;td&gt;&lt;/td&gt;&lt;td&gt;products: itemsId[]&lt;br&gt;productsPrice: number&lt;br&gt;totalQuantity: number&lt;br&gt;status: enum&lt;br&gt;isPaid: boolean&lt;br&gt;isDelivered: boolean&lt;br&gt;deliveredAt: Date&lt;br&gt;paymentMethod: Type.id&lt;br&gt;taxPrice: number&lt;br&gt;shippingPrice: number&lt;br&gt;phone: string&lt;br&gt;address: Type.id&lt;br&gt;estimatedDeliveryTime: number&lt;br&gt;timestamp: Date&lt;/td&gt;&lt;td&gt;&lt;br&gt;&lt;/td&gt;&lt;td&gt;&lt;br&gt;&lt;/td&gt;&lt;td&gt;&lt;br&gt;&lt;/td&gt;&lt;td&gt;&lt;br&gt;&lt;/td&gt;&lt;td&gt;&lt;br&gt;&lt;/td&gt;&lt;td&gt;&lt;br&gt;&lt;/td&gt;&lt;td&gt;&lt;br&gt;&lt;/td&gt;&lt;td&gt;&lt;br&gt;&lt;/td&gt;&lt;/tr&gt;&lt;/tbody&gt;&lt;/table&gt;" style="verticalAlign=top;align=left;overflow=fill;html=1;rounded=0;shadow=0;comic=0;labelBackgroundColor=none;strokeWidth=1;fontFamily=Verdana;fontSize=12;fillColor=#182E3E;strokeColor=#FFFFFF;fontColor=#FFFFFF;" parent="1" vertex="1">
          <mxGeometry x="-2309" y="-420" width="207.5" height="270" as="geometry" />
        </mxCell>
        <mxCell id="s3C25jFBt-9yLEdoIZRi-53" style="edgeStyle=orthogonalEdgeStyle;rounded=0;orthogonalLoop=1;jettySize=auto;html=1;exitX=1;exitY=0.5;exitDx=0;exitDy=0;entryX=0;entryY=0.5;entryDx=0;entryDy=0;labelBackgroundColor=none;fontColor=default;strokeColor=#23445D;" edge="1" parent="1" source="2ed32ef02a7f4228-7" target="s3C25jFBt-9yLEdoIZRi-52">
          <mxGeometry relative="1" as="geometry" />
        </mxCell>
        <mxCell id="2ed32ef02a7f4228-7" value="&lt;div data-darkreader-inline-bgcolor=&quot;&quot; data-darkreader-inline-bgimage=&quot;&quot; style=&quot;box-sizing: border-box; width: 100%; background: rgb(228, 228, 228); padding: 2px; --darkreader-inline-bgimage: initial; --darkreader-inline-bgcolor: #272b2c;&quot;&gt;Address&lt;br&gt;&lt;/div&gt;&lt;blockquote data-darkreader-inline-border-left=&quot;&quot; data-darkreader-inline-border-bottom=&quot;&quot; data-darkreader-inline-border-right=&quot;&quot; data-darkreader-inline-border-top=&quot;&quot; style=&quot;margin: 0px 0px 0px 40px; border: none; padding: 0px; --darkreader-inline-border-top: initial; --darkreader-inline-border-right: initial; --darkreader-inline-border-bottom: initial; --darkreader-inline-border-left: initial;&quot;&gt;&lt;/blockquote&gt;&lt;span data-darkreader-inline-color=&quot;&quot; data-darkreader-inline-bgcolor=&quot;&quot; style=&quot;background-color: initial; color: rgb(255, 255, 255); --darkreader-inline-bgcolor: initial; --darkreader-inline-color: #e8e6e3;&quot;&gt;&lt;div style=&quot;&quot;&gt;&lt;span data-darkreader-inline-color=&quot;&quot; data-darkreader-inline-bgcolor=&quot;&quot; style=&quot;background-color: initial; color: rgb(255, 255, 255); --darkreader-inline-bgcolor: initial; --darkreader-inline-color: #e8e6e3;&quot;&gt;&amp;nbsp; city: string&lt;/span&gt;&lt;/div&gt;&lt;/span&gt;&lt;blockquote data-darkreader-inline-border-left=&quot;&quot; data-darkreader-inline-border-bottom=&quot;&quot; data-darkreader-inline-border-right=&quot;&quot; data-darkreader-inline-border-top=&quot;&quot; style=&quot;margin: 0px 0px 0px 40px; border: none; padding: 0px; --darkreader-inline-border-top: initial; --darkreader-inline-border-right: initial; --darkreader-inline-border-bottom: initial; --darkreader-inline-border-left: initial;&quot;&gt;&lt;/blockquote&gt;&lt;span data-darkreader-inline-color=&quot;&quot; data-darkreader-inline-bgcolor=&quot;&quot; style=&quot;background-color: initial; color: rgb(255, 255, 255); --darkreader-inline-bgcolor: initial; --darkreader-inline-color: #e8e6e3;&quot;&gt;&lt;div style=&quot;&quot;&gt;&lt;span data-darkreader-inline-color=&quot;&quot; data-darkreader-inline-bgcolor=&quot;&quot; style=&quot;background-color: initial; color: rgb(255, 255, 255); --darkreader-inline-bgcolor: initial; --darkreader-inline-color: #e8e6e3;&quot;&gt;&amp;nbsp; addressDetails: string&lt;/span&gt;&lt;/div&gt;&lt;/span&gt;&lt;blockquote data-darkreader-inline-border-left=&quot;&quot; data-darkreader-inline-border-bottom=&quot;&quot; data-darkreader-inline-border-right=&quot;&quot; data-darkreader-inline-border-top=&quot;&quot; style=&quot;margin: 0px 0px 0px 40px; border: none; padding: 0px; --darkreader-inline-border-top: initial; --darkreader-inline-border-right: initial; --darkreader-inline-border-bottom: initial; --darkreader-inline-border-left: initial;&quot;&gt;&lt;/blockquote&gt;&lt;span data-darkreader-inline-color=&quot;&quot; data-darkreader-inline-bgcolor=&quot;&quot; style=&quot;background-color: initial; color: rgb(255, 255, 255); --darkreader-inline-bgcolor: initial; --darkreader-inline-color: #e8e6e3;&quot;&gt;&lt;div style=&quot;&quot;&gt;&lt;span data-darkreader-inline-color=&quot;&quot; data-darkreader-inline-bgcolor=&quot;&quot; style=&quot;background-color: initial; color: rgb(255, 255, 255); --darkreader-inline-bgcolor: initial; --darkreader-inline-color: #e8e6e3;&quot;&gt;&amp;nbsp; additionalInfo: string&lt;/span&gt;&lt;/div&gt;&lt;/span&gt;&lt;div style=&quot;&quot;&gt;&lt;span data-darkreader-inline-color=&quot;&quot; data-darkreader-inline-bgcolor=&quot;&quot; style=&quot;background-color: initial; color: rgb(255, 255, 255); --darkreader-inline-bgcolor: initial; --darkreader-inline-color: #e8e6e3;&quot;&gt;&amp;nbsp; location: Coordinate&lt;/span&gt;&lt;/div&gt;" style="verticalAlign=top;align=left;overflow=fill;html=1;rounded=0;shadow=0;comic=0;labelBackgroundColor=none;strokeWidth=1;fontFamily=Verdana;fontSize=12;fillColor=#182E3E;strokeColor=#FFFFFF;fontColor=#FFFFFF;" parent="1" vertex="1">
          <mxGeometry x="-1670" y="-530" width="150" height="100" as="geometry" />
        </mxCell>
        <mxCell id="s3C25jFBt-9yLEdoIZRi-58" style="edgeStyle=orthogonalEdgeStyle;rounded=0;orthogonalLoop=1;jettySize=auto;html=1;exitX=0.5;exitY=0;exitDx=0;exitDy=0;entryX=0.574;entryY=1.004;entryDx=0;entryDy=0;entryPerimeter=0;strokeColor=#23445D;" edge="1" parent="1" source="2ed32ef02a7f4228-8" target="2ed32ef02a7f4228-1">
          <mxGeometry relative="1" as="geometry" />
        </mxCell>
        <mxCell id="2ed32ef02a7f4228-8" value="&lt;div data-darkreader-inline-bgcolor=&quot;&quot; data-darkreader-inline-bgimage=&quot;&quot; style=&quot;box-sizing: border-box; width: 100%; background: rgb(228, 228, 228); padding: 2px; --darkreader-inline-bgimage: initial; --darkreader-inline-bgcolor: #272b2c;&quot;&gt;Category&lt;br&gt;&lt;/div&gt;&lt;table style=&quot;width: 100% ; font-size: 1em&quot; cellpadding=&quot;2&quot; cellspacing=&quot;0&quot;&gt;&lt;tbody&gt;&lt;tr&gt;&lt;td&gt;&lt;br&gt;&lt;/td&gt;&lt;td&gt;_id: Type.id &amp;lt;PK&amp;gt;&lt;br&gt;parentCategory: &amp;lt;FK1&amp;gt;&lt;/td&gt;&lt;/tr&gt;&lt;tr&gt;&lt;td&gt;&lt;br&gt;&lt;/td&gt;&lt;td&gt;name: string&lt;br&gt;description: string&lt;br&gt;image: string&lt;/td&gt;&lt;td&gt;&lt;br&gt;&lt;/td&gt;&lt;td&gt;&lt;br&gt;&lt;/td&gt;&lt;td&gt;&lt;br&gt;&lt;/td&gt;&lt;/tr&gt;&lt;/tbody&gt;&lt;/table&gt;" style="verticalAlign=top;align=left;overflow=fill;html=1;rounded=0;shadow=0;comic=0;labelBackgroundColor=none;strokeWidth=1;fontFamily=Verdana;fontSize=12;fillColor=#182E3E;strokeColor=#FFFFFF;fontColor=#FFFFFF;" parent="1" vertex="1">
          <mxGeometry x="-1620" y="10" width="180" height="105" as="geometry" />
        </mxCell>
        <mxCell id="s3C25jFBt-9yLEdoIZRi-147" style="edgeStyle=orthogonalEdgeStyle;rounded=0;orthogonalLoop=1;jettySize=auto;html=1;exitX=0.5;exitY=0;exitDx=0;exitDy=0;entryX=0.5;entryY=1;entryDx=0;entryDy=0;strokeColor=#23445D;" edge="1" parent="1" source="2ed32ef02a7f4228-9" target="s3C25jFBt-9yLEdoIZRi-25">
          <mxGeometry relative="1" as="geometry" />
        </mxCell>
        <mxCell id="s3C25jFBt-9yLEdoIZRi-148" style="edgeStyle=orthogonalEdgeStyle;rounded=0;orthogonalLoop=1;jettySize=auto;html=1;exitX=1;exitY=1;exitDx=0;exitDy=0;entryX=0.038;entryY=0.003;entryDx=0;entryDy=0;entryPerimeter=0;strokeColor=#23445D;" edge="1" parent="1" source="2ed32ef02a7f4228-9" target="2ed32ef02a7f4228-1">
          <mxGeometry relative="1" as="geometry">
            <Array as="points">
              <mxPoint x="-1683" y="-440" />
            </Array>
          </mxGeometry>
        </mxCell>
        <mxCell id="2ed32ef02a7f4228-9" value="&lt;div data-darkreader-inline-bgcolor=&quot;&quot; data-darkreader-inline-bgimage=&quot;&quot; style=&quot;box-sizing: border-box; width: 100%; background: rgb(228, 228, 228); padding: 2px; --darkreader-inline-bgimage: initial; --darkreader-inline-bgcolor: #272b2c;&quot;&gt;ChatMessage&lt;br&gt;&lt;/div&gt;&lt;table style=&quot;width:100%;font-size:1em;&quot; cellpadding=&quot;2&quot; cellspacing=&quot;0&quot;&gt;&lt;tbody&gt;&lt;tr&gt;&lt;td&gt;&lt;br&gt;&lt;/td&gt;&lt;td&gt;_id: Type.id &amp;lt;PK&amp;gt;&lt;br&gt;chatId: Type.id &amp;lt;FK1&amp;gt;&lt;br&gt;senderId: Type.id &amp;lt;FK2&amp;gt;&lt;br&gt;message: string&lt;br&gt;timestamp: Date&lt;br&gt;&lt;/td&gt;&lt;/tr&gt;&lt;tr&gt;&lt;td&gt;&lt;br&gt;&lt;/td&gt;&lt;td&gt;&lt;/td&gt;&lt;td&gt;&lt;br&gt;&lt;/td&gt;&lt;td&gt;&lt;br&gt;&lt;/td&gt;&lt;td&gt;&lt;br&gt;&lt;/td&gt;&lt;td&gt;&lt;br&gt;&lt;/td&gt;&lt;td&gt;&lt;br&gt;&lt;/td&gt;&lt;td&gt;&lt;br&gt;&lt;/td&gt;&lt;/tr&gt;&lt;/tbody&gt;&lt;/table&gt;" style="verticalAlign=top;align=left;overflow=fill;html=1;rounded=0;shadow=0;comic=0;labelBackgroundColor=none;strokeWidth=1;fontFamily=Verdana;fontSize=12;fillColor=#182E3E;strokeColor=#FFFFFF;fontColor=#FFFFFF;" parent="1" vertex="1">
          <mxGeometry x="-1950" y="-550" width="180" height="110" as="geometry" />
        </mxCell>
        <mxCell id="s3C25jFBt-9yLEdoIZRi-79" style="edgeStyle=orthogonalEdgeStyle;rounded=0;orthogonalLoop=1;jettySize=auto;html=1;exitX=0;exitY=0.5;exitDx=0;exitDy=0;entryX=1.008;entryY=0.186;entryDx=0;entryDy=0;entryPerimeter=0;strokeColor=#23445D;" edge="1" parent="1" source="2ed32ef02a7f4228-10" target="2ed32ef02a7f4228-2">
          <mxGeometry relative="1" as="geometry" />
        </mxCell>
        <mxCell id="2ed32ef02a7f4228-10" value="&lt;div data-darkreader-inline-bgcolor=&quot;&quot; data-darkreader-inline-bgimage=&quot;&quot; style=&quot;box-sizing: border-box; width: 100%; background: rgb(228, 228, 228); padding: 2px; --darkreader-inline-bgimage: initial; --darkreader-inline-bgcolor: #272b2c;&quot;&gt;Review&lt;/div&gt;&lt;table style=&quot;width: 100% ; font-size: 1em&quot; cellpadding=&quot;2&quot; cellspacing=&quot;0&quot;&gt;&lt;tbody&gt;&lt;tr&gt;&lt;td&gt;&lt;br&gt;&lt;/td&gt;&lt;td&gt;_id: Type.id &amp;lt;PK&amp;gt;&lt;br&gt;userId: Type.id &amp;lt;FK1&amp;gt;&lt;br&gt;productId: Type.id &amp;lt;FK2&amp;gt;&lt;br&gt;rating: number(1~5)&lt;br&gt;message: string&lt;br&gt;timestamp: Date&lt;/td&gt;&lt;/tr&gt;&lt;tr&gt;&lt;td&gt;&lt;br&gt;&lt;/td&gt;&lt;td&gt;&lt;/td&gt;&lt;td&gt;&lt;br&gt;&lt;/td&gt;&lt;td&gt;&lt;br&gt;&lt;/td&gt;&lt;td&gt;&lt;br&gt;&lt;/td&gt;&lt;td&gt;&lt;br&gt;&lt;/td&gt;&lt;td&gt;&lt;br&gt;&lt;/td&gt;&lt;td&gt;&lt;br&gt;&lt;/td&gt;&lt;/tr&gt;&lt;/tbody&gt;&lt;/table&gt;" style="verticalAlign=top;align=left;overflow=fill;html=1;rounded=0;shadow=0;comic=0;labelBackgroundColor=none;strokeWidth=1;fontFamily=Verdana;fontSize=12;fillColor=#182E3E;strokeColor=#FFFFFF;fontColor=#FFFFFF;" parent="1" vertex="1">
          <mxGeometry x="-1100" y="10" width="180" height="120" as="geometry" />
        </mxCell>
        <mxCell id="s3C25jFBt-9yLEdoIZRi-80" style="edgeStyle=orthogonalEdgeStyle;rounded=0;orthogonalLoop=1;jettySize=auto;html=1;exitX=0;exitY=1;exitDx=0;exitDy=0;entryX=1;entryY=0;entryDx=0;entryDy=0;strokeColor=#23445D;" edge="1" parent="1" source="2ed32ef02a7f4228-12" target="2ed32ef02a7f4228-2">
          <mxGeometry relative="1" as="geometry">
            <Array as="points">
              <mxPoint x="-1160" y="32" />
            </Array>
          </mxGeometry>
        </mxCell>
        <mxCell id="s3C25jFBt-9yLEdoIZRi-82" style="edgeStyle=orthogonalEdgeStyle;rounded=0;orthogonalLoop=1;jettySize=auto;html=1;exitX=0;exitY=0;exitDx=0;exitDy=0;entryX=1;entryY=0.045;entryDx=0;entryDy=0;entryPerimeter=0;strokeColor=#23445D;" edge="1" parent="1" source="2ed32ef02a7f4228-12" target="2ed32ef02a7f4228-1">
          <mxGeometry relative="1" as="geometry" />
        </mxCell>
        <mxCell id="2ed32ef02a7f4228-12" value="&lt;div data-darkreader-inline-bgcolor=&quot;&quot; data-darkreader-inline-bgimage=&quot;&quot; style=&quot;box-sizing: border-box; width: 100%; background: rgb(228, 228, 228); padding: 2px; --darkreader-inline-bgimage: initial; --darkreader-inline-bgcolor: #272b2c;&quot;&gt;Favorite&lt;br&gt;&lt;/div&gt;&lt;table style=&quot;width: 100% ; font-size: 1em&quot; cellpadding=&quot;2&quot; cellspacing=&quot;0&quot;&gt;&lt;tbody&gt;&lt;tr&gt;&lt;td&gt;&lt;/td&gt;&lt;td&gt;_id:&amp;nbsp; Type.id&amp;lt;PK&amp;gt;&lt;br&gt;userId: Type.id &amp;lt;FK1&amp;gt;&lt;br&gt;productId?: Type.id&lt;br&gt;vendorId?: Type.id&lt;br&gt;timestamp: Date&lt;/td&gt;&lt;/tr&gt;&lt;tr&gt;&lt;td&gt;&lt;br&gt;&lt;/td&gt;&lt;td&gt;&lt;/td&gt;&lt;td&gt;&lt;br&gt;&lt;/td&gt;&lt;td&gt;&amp;nbsp;&lt;/td&gt;&lt;td&gt;&lt;br&gt;&lt;/td&gt;&lt;td&gt;&lt;br&gt;&lt;/td&gt;&lt;td&gt;&lt;br&gt;&lt;/td&gt;&lt;td&gt;&lt;br&gt;&lt;br&gt;&lt;/td&gt;&lt;/tr&gt;&lt;/tbody&gt;&lt;/table&gt;" style="verticalAlign=top;align=left;overflow=fill;html=1;rounded=0;shadow=0;comic=0;labelBackgroundColor=none;strokeWidth=1;fontFamily=Verdana;fontSize=12;fillColor=#182E3E;strokeColor=#FFFFFF;fontColor=#FFFFFF;" parent="1" vertex="1">
          <mxGeometry x="-1160" y="-240" width="190" height="110" as="geometry" />
        </mxCell>
        <mxCell id="s3C25jFBt-9yLEdoIZRi-145" style="edgeStyle=orthogonalEdgeStyle;rounded=0;orthogonalLoop=1;jettySize=auto;html=1;exitX=0.5;exitY=1;exitDx=0;exitDy=0;entryX=0.5;entryY=0;entryDx=0;entryDy=0;strokeColor=#23445D;" edge="1" parent="1" source="s3C25jFBt-9yLEdoIZRi-5" target="s3C25jFBt-9yLEdoIZRi-41">
          <mxGeometry relative="1" as="geometry" />
        </mxCell>
        <mxCell id="s3C25jFBt-9yLEdoIZRi-146" style="edgeStyle=orthogonalEdgeStyle;rounded=0;orthogonalLoop=1;jettySize=auto;html=1;exitX=0.75;exitY=0;exitDx=0;exitDy=0;entryX=0.005;entryY=0.975;entryDx=0;entryDy=0;entryPerimeter=0;strokeColor=#23445D;" edge="1" parent="1" source="s3C25jFBt-9yLEdoIZRi-5" target="2ed32ef02a7f4228-1">
          <mxGeometry relative="1" as="geometry" />
        </mxCell>
        <mxCell id="s3C25jFBt-9yLEdoIZRi-5" value="&lt;div data-darkreader-inline-bgcolor=&quot;&quot; data-darkreader-inline-bgimage=&quot;&quot; style=&quot;box-sizing: border-box; width: 100%; background: rgb(228, 228, 228); padding: 2px; --darkreader-inline-bgimage: initial; --darkreader-inline-bgcolor: #272b2c;&quot;&gt;Token&lt;/div&gt;&lt;table style=&quot;width:100%;font-size:1em;&quot; cellpadding=&quot;2&quot; cellspacing=&quot;0&quot;&gt;&lt;tbody&gt;&lt;tr&gt;&lt;td&gt;&lt;br&gt;&lt;/td&gt;&lt;td&gt;_id: Type.id &amp;lt;PK&amp;gt;&lt;br&gt;&lt;/td&gt;&lt;/tr&gt;&lt;tr&gt;&lt;td&gt;&lt;br&gt;&lt;/td&gt;&lt;td&gt;userId: Type.id &amp;lt;FK1&amp;gt;&amp;nbsp;&lt;br&gt;&lt;/td&gt;&lt;/tr&gt;&lt;tr&gt;&lt;td&gt;&lt;/td&gt;&lt;td&gt;expires: Date&lt;br&gt;type: enum&lt;br&gt;&lt;/td&gt;&lt;td&gt;&lt;br&gt;&lt;/td&gt;&lt;td&gt;&lt;br&gt;&lt;/td&gt;&lt;td&gt;&lt;br&gt;&lt;/td&gt;&lt;td&gt;&lt;br&gt;&lt;/td&gt;&lt;td&gt;&lt;br&gt;&lt;/td&gt;&lt;td&gt;&lt;br&gt;&lt;/td&gt;&lt;td&gt;&lt;br&gt;&lt;/td&gt;&lt;td&gt;&lt;br&gt;&lt;/td&gt;&lt;/tr&gt;&lt;/tbody&gt;&lt;/table&gt;" style="verticalAlign=top;align=left;overflow=fill;html=1;rounded=0;shadow=0;comic=0;labelBackgroundColor=none;strokeWidth=1;fontFamily=Verdana;fontSize=12;fillColor=#182E3E;strokeColor=#FFFFFF;fontColor=#FFFFFF;" vertex="1" parent="1">
          <mxGeometry x="-1843.75" y="32.5" width="177.5" height="100" as="geometry" />
        </mxCell>
        <mxCell id="s3C25jFBt-9yLEdoIZRi-6" value="&lt;div data-darkreader-inline-bgcolor=&quot;&quot; data-darkreader-inline-bgimage=&quot;&quot; style=&quot;box-sizing: border-box; width: 100%; background: rgb(228, 228, 228); padding: 2px; --darkreader-inline-bgimage: initial; --darkreader-inline-bgcolor: #272b2c;&quot;&gt;Size&lt;/div&gt;&lt;table style=&quot;width: 100% ; font-size: 1em&quot; cellpadding=&quot;2&quot; cellspacing=&quot;0&quot;&gt;&lt;tbody&gt;&lt;tr&gt;&lt;td&gt;&lt;br&gt;&lt;/td&gt;&lt;td&gt;_id: Type.id &amp;lt;PK&amp;gt;&lt;br&gt;&lt;/td&gt;&lt;/tr&gt;&lt;tr&gt;&lt;td&gt;&lt;br&gt;&lt;/td&gt;&lt;td&gt;name: string&lt;br&gt;price: number&lt;/td&gt;&lt;td&gt;&lt;br&gt;&lt;/td&gt;&lt;td&gt;&lt;br&gt;&lt;/td&gt;&lt;td&gt;&lt;br&gt;&lt;/td&gt;&lt;/tr&gt;&lt;/tbody&gt;&lt;/table&gt;" style="verticalAlign=top;align=left;overflow=fill;html=1;rounded=0;shadow=0;comic=0;labelBackgroundColor=none;strokeWidth=1;fontFamily=Verdana;fontSize=12;fillColor=#182E3E;strokeColor=#FFFFFF;fontColor=#FFFFFF;" vertex="1" parent="1">
          <mxGeometry x="-1020" y="600" width="180" height="80" as="geometry" />
        </mxCell>
        <mxCell id="s3C25jFBt-9yLEdoIZRi-7" value="&lt;div data-darkreader-inline-bgcolor=&quot;&quot; data-darkreader-inline-bgimage=&quot;&quot; style=&quot;box-sizing: border-box; width: 100%; background: rgb(228, 228, 228); padding: 2px; --darkreader-inline-bgimage: initial; --darkreader-inline-bgcolor: #272b2c;&quot;&gt;Item&lt;/div&gt;&lt;table style=&quot;width: 100% ; font-size: 1em&quot; cellpadding=&quot;2&quot; cellspacing=&quot;0&quot;&gt;&lt;tbody&gt;&lt;tr&gt;&lt;td&gt;&lt;br&gt;&lt;/td&gt;&lt;td&gt;_id: Type.id &amp;lt;PK&amp;gt;&lt;br&gt;&lt;/td&gt;&lt;/tr&gt;&lt;tr&gt;&lt;td&gt;&lt;br&gt;&lt;/td&gt;&lt;td&gt;productId:Type.id &amp;lt;FK1&amp;gt;&lt;br&gt;quantity: number&lt;br&gt;pricePerUnit: number&lt;br&gt;totalPrice: number&amp;nbsp;&lt;/td&gt;&lt;td&gt;&lt;br&gt;&lt;/td&gt;&lt;td&gt;&lt;br&gt;&lt;/td&gt;&lt;td&gt;&lt;br&gt;&lt;/td&gt;&lt;/tr&gt;&lt;/tbody&gt;&lt;/table&gt;" style="verticalAlign=top;align=left;overflow=fill;html=1;rounded=0;shadow=0;comic=0;labelBackgroundColor=none;strokeWidth=1;fontFamily=Verdana;fontSize=12;fillColor=#182E3E;strokeColor=#FFFFFF;fontColor=#FFFFFF;" vertex="1" parent="1">
          <mxGeometry x="-2309" y="-560" width="180" height="110" as="geometry" />
        </mxCell>
        <mxCell id="s3C25jFBt-9yLEdoIZRi-61" style="edgeStyle=orthogonalEdgeStyle;rounded=0;orthogonalLoop=1;jettySize=auto;html=1;exitX=0.5;exitY=1;exitDx=0;exitDy=0;entryX=0;entryY=0;entryDx=0;entryDy=0;strokeColor=#23445D;" edge="1" parent="1" source="s3C25jFBt-9yLEdoIZRi-11" target="s3C25jFBt-9yLEdoIZRi-6">
          <mxGeometry relative="1" as="geometry">
            <Array as="points">
              <mxPoint x="-1300" y="570" />
              <mxPoint x="-1020" y="570" />
            </Array>
          </mxGeometry>
        </mxCell>
        <mxCell id="s3C25jFBt-9yLEdoIZRi-73" style="edgeStyle=orthogonalEdgeStyle;rounded=0;orthogonalLoop=1;jettySize=auto;html=1;exitX=0.5;exitY=0;exitDx=0;exitDy=0;entryX=0.5;entryY=1;entryDx=0;entryDy=0;strokeColor=#23445D;" edge="1" parent="1" source="s3C25jFBt-9yLEdoIZRi-11" target="2ed32ef02a7f4228-2">
          <mxGeometry relative="1" as="geometry" />
        </mxCell>
        <mxCell id="s3C25jFBt-9yLEdoIZRi-11" value="&lt;div data-darkreader-inline-bgcolor=&quot;&quot; data-darkreader-inline-bgimage=&quot;&quot; style=&quot;box-sizing: border-box; width: 100%; background: rgb(228, 228, 228); padding: 2px; --darkreader-inline-bgimage: initial; --darkreader-inline-bgcolor: #272b2c;&quot;&gt;Pharmacy&lt;br&gt;&lt;/div&gt;&lt;table style=&quot;width:100%;font-size:1em;&quot; cellpadding=&quot;2&quot; cellspacing=&quot;0&quot;&gt;&lt;tbody&gt;&lt;tr&gt;&lt;td&gt;rating: number&lt;br&gt;discount: number&lt;br style=&quot;border-color: var(--darkreader-border--border-color); --darkreader-inline-border: var(--darkreader-border--darkreader-border--border-color);&quot; data-darkreader-inline-border=&quot;&quot;&gt;size: Type.id&lt;br&gt;quantity: number&lt;br data-darkreader-inline-border=&quot;&quot; style=&quot;border-color: var(--darkreader-border--border-color); --darkreader-inline-border: var(--darkreader-border--darkreader-border--border-color);&quot;&gt;sold: number&lt;br&gt;&lt;/td&gt;&lt;td&gt;&lt;br&gt;&lt;/td&gt;&lt;/tr&gt;&lt;tr&gt;&lt;td&gt;&lt;br&gt;&lt;/td&gt;&lt;td&gt;&lt;/td&gt;&lt;td&gt;&lt;br&gt;&lt;/td&gt;&lt;td&gt;&lt;br&gt;&lt;/td&gt;&lt;td&gt;&lt;br&gt;&lt;/td&gt;&lt;td&gt;&lt;br&gt;&lt;/td&gt;&lt;/tr&gt;&lt;/tbody&gt;&lt;/table&gt;" style="verticalAlign=top;align=left;overflow=fill;html=1;rounded=0;shadow=0;comic=0;labelBackgroundColor=none;strokeWidth=1;fontFamily=Verdana;fontSize=12;fillColor=#182E3E;strokeColor=#FFFFFF;fontColor=#FFFFFF;" vertex="1" parent="1">
          <mxGeometry x="-1390" y="370" width="180" height="110" as="geometry" />
        </mxCell>
        <mxCell id="s3C25jFBt-9yLEdoIZRi-74" style="edgeStyle=orthogonalEdgeStyle;rounded=0;orthogonalLoop=1;jettySize=auto;html=1;exitX=0.5;exitY=0;exitDx=0;exitDy=0;entryX=0.25;entryY=1;entryDx=0;entryDy=0;strokeColor=#23445D;" edge="1" parent="1" source="s3C25jFBt-9yLEdoIZRi-12" target="2ed32ef02a7f4228-2">
          <mxGeometry relative="1" as="geometry" />
        </mxCell>
        <mxCell id="s3C25jFBt-9yLEdoIZRi-12" value="&lt;div data-darkreader-inline-bgcolor=&quot;&quot; data-darkreader-inline-bgimage=&quot;&quot; style=&quot;box-sizing: border-box; width: 100%; background: rgb(228, 228, 228); padding: 2px; --darkreader-inline-bgimage: initial; --darkreader-inline-bgcolor: #272b2c;&quot;&gt;HomeServices&amp;nbsp;&lt;br&gt;&lt;/div&gt;&lt;table style=&quot;width:100%;font-size:1em;&quot; cellpadding=&quot;2&quot; cellspacing=&quot;0&quot;&gt;&lt;tbody&gt;&lt;tr&gt;&lt;td&gt;&lt;br&gt;&lt;/td&gt;&lt;td&gt;&lt;/td&gt;&lt;td&gt;commitmentRate: number&lt;br&gt;priceRate: number&lt;br&gt;qualityRate: number&lt;br&gt;DoneServices: number&lt;br&gt;&lt;br&gt;&lt;/td&gt;&lt;td&gt;&lt;br&gt;&lt;/td&gt;&lt;td&gt;&lt;br&gt;&lt;/td&gt;&lt;/tr&gt;&lt;tr&gt;&lt;td&gt;&lt;br&gt;&lt;/td&gt;&lt;td&gt;&lt;/td&gt;&lt;td&gt;&lt;br&gt;&lt;/td&gt;&lt;td&gt;&lt;br&gt;&lt;/td&gt;&lt;td&gt;&lt;br&gt;&lt;/td&gt;&lt;td&gt;&lt;br&gt;&lt;/td&gt;&lt;/tr&gt;&lt;/tbody&gt;&lt;/table&gt;" style="verticalAlign=top;align=left;overflow=fill;html=1;rounded=0;shadow=0;comic=0;labelBackgroundColor=none;strokeWidth=1;fontFamily=Verdana;fontSize=12;fillColor=#182E3E;strokeColor=#FFFFFF;fontColor=#FFFFFF;" vertex="1" parent="1">
          <mxGeometry x="-1600" y="375" width="180" height="90" as="geometry" />
        </mxCell>
        <mxCell id="s3C25jFBt-9yLEdoIZRi-59" style="edgeStyle=orthogonalEdgeStyle;rounded=0;orthogonalLoop=1;jettySize=auto;html=1;exitX=0.5;exitY=1;exitDx=0;exitDy=0;strokeColor=#23445D;" edge="1" parent="1" source="s3C25jFBt-9yLEdoIZRi-13" target="s3C25jFBt-9yLEdoIZRi-6">
          <mxGeometry relative="1" as="geometry" />
        </mxCell>
        <mxCell id="s3C25jFBt-9yLEdoIZRi-71" style="edgeStyle=orthogonalEdgeStyle;rounded=0;orthogonalLoop=1;jettySize=auto;html=1;exitX=0.5;exitY=0;exitDx=0;exitDy=0;entryX=1;entryY=1;entryDx=0;entryDy=0;strokeColor=#23445D;" edge="1" parent="1" source="s3C25jFBt-9yLEdoIZRi-13" target="2ed32ef02a7f4228-2">
          <mxGeometry relative="1" as="geometry">
            <Array as="points">
              <mxPoint x="-900" y="243" />
            </Array>
          </mxGeometry>
        </mxCell>
        <mxCell id="s3C25jFBt-9yLEdoIZRi-13" value="&lt;div data-darkreader-inline-bgcolor=&quot;&quot; data-darkreader-inline-bgimage=&quot;&quot; style=&quot;box-sizing: border-box; width: 100%; background: rgb(228, 228, 228); padding: 2px; --darkreader-inline-bgimage: initial; --darkreader-inline-bgcolor: #272b2c;&quot;&gt;FastFood&lt;br&gt;&lt;/div&gt;&amp;nbsp;&lt;table style=&quot;width:100%;font-size:1em;&quot; cellpadding=&quot;2&quot; cellspacing=&quot;0&quot;&gt;&lt;tbody&gt;&lt;tr&gt;&lt;td&gt;&lt;br&gt;&lt;/td&gt;&lt;td&gt;rating: number&lt;br&gt;discount: number&lt;br style=&quot;border-color: var(--darkreader-border--border-color); --darkreader-inline-border: var(--darkreader-border--darkreader-border--border-color);&quot; data-darkreader-inline-border=&quot;&quot;&gt;size: Type.id&lt;br&gt;sold: number&lt;br&gt;&lt;/td&gt;&lt;/tr&gt;&lt;tr&gt;&lt;td&gt;&lt;br&gt;&lt;/td&gt;&lt;td&gt;&lt;/td&gt;&lt;td&gt;&lt;br&gt;&lt;/td&gt;&lt;td&gt;&lt;br&gt;&lt;/td&gt;&lt;td&gt;&lt;br&gt;&lt;/td&gt;&lt;td&gt;&lt;br&gt;&lt;/td&gt;&lt;/tr&gt;&lt;/tbody&gt;&lt;/table&gt;" style="verticalAlign=top;align=left;overflow=fill;html=1;rounded=0;shadow=0;comic=0;labelBackgroundColor=none;strokeWidth=1;fontFamily=Verdana;fontSize=12;fillColor=#182E3E;strokeColor=#FFFFFF;fontColor=#FFFFFF;" vertex="1" parent="1">
          <mxGeometry x="-990" y="370" width="180" height="120" as="geometry" />
        </mxCell>
        <mxCell id="s3C25jFBt-9yLEdoIZRi-72" style="edgeStyle=orthogonalEdgeStyle;rounded=0;orthogonalLoop=1;jettySize=auto;html=1;exitX=0.5;exitY=0;exitDx=0;exitDy=0;entryX=0.75;entryY=1;entryDx=0;entryDy=0;strokeColor=#23445D;" edge="1" parent="1" source="s3C25jFBt-9yLEdoIZRi-15" target="2ed32ef02a7f4228-2">
          <mxGeometry relative="1" as="geometry" />
        </mxCell>
        <mxCell id="s3C25jFBt-9yLEdoIZRi-75" style="edgeStyle=orthogonalEdgeStyle;rounded=0;orthogonalLoop=1;jettySize=auto;html=1;exitX=0.5;exitY=1;exitDx=0;exitDy=0;entryX=0.302;entryY=-0.011;entryDx=0;entryDy=0;entryPerimeter=0;strokeColor=#23445D;" edge="1" parent="1" source="s3C25jFBt-9yLEdoIZRi-15" target="s3C25jFBt-9yLEdoIZRi-6">
          <mxGeometry relative="1" as="geometry" />
        </mxCell>
        <mxCell id="s3C25jFBt-9yLEdoIZRi-15" value="&lt;div data-darkreader-inline-bgcolor=&quot;&quot; data-darkreader-inline-bgimage=&quot;&quot; style=&quot;box-sizing: border-box; width: 100%; background: rgb(228, 228, 228); padding: 2px; --darkreader-inline-bgimage: initial; --darkreader-inline-bgcolor: #272b2c;&quot;&gt;HouseholdShops&lt;br&gt;&lt;/div&gt;&lt;table style=&quot;width:100%;font-size:1em;&quot; cellpadding=&quot;2&quot; cellspacing=&quot;0&quot;&gt;&lt;tbody&gt;&lt;tr&gt;&lt;td&gt;&lt;br&gt;&lt;/td&gt;&lt;td&gt;rating: number&lt;br&gt;discount: number&lt;br style=&quot;border-color: var(--darkreader-border--border-color); --darkreader-inline-border: var(--darkreader-border--darkreader-border--border-color);&quot; data-darkreader-inline-border=&quot;&quot;&gt;size: Type.id&lt;br&gt;colors: string[]&lt;br&gt;quantity: number&lt;br data-darkreader-inline-border=&quot;&quot; style=&quot;border-color: var(--darkreader-border--border-color); --darkreader-inline-border: var(--darkreader-border--darkreader-border--border-color);&quot;&gt;sold: number&lt;br&gt;&lt;/td&gt;&lt;/tr&gt;&lt;tr&gt;&lt;td&gt;&lt;br&gt;&lt;/td&gt;&lt;td&gt;&lt;/td&gt;&lt;td&gt;&lt;br&gt;&lt;/td&gt;&lt;td&gt;&lt;br&gt;&lt;/td&gt;&lt;td&gt;&lt;br&gt;&lt;/td&gt;&lt;td&gt;&lt;br&gt;&lt;/td&gt;&lt;/tr&gt;&lt;/tbody&gt;&lt;/table&gt;" style="verticalAlign=top;align=left;overflow=fill;html=1;rounded=0;shadow=0;comic=0;labelBackgroundColor=none;strokeWidth=1;fontFamily=Verdana;fontSize=12;fillColor=#182E3E;strokeColor=#FFFFFF;fontColor=#FFFFFF;" vertex="1" parent="1">
          <mxGeometry x="-1190" y="370" width="180" height="120" as="geometry" />
        </mxCell>
        <mxCell id="s3C25jFBt-9yLEdoIZRi-60" style="edgeStyle=orthogonalEdgeStyle;rounded=0;orthogonalLoop=1;jettySize=auto;html=1;exitX=0.5;exitY=1;exitDx=0;exitDy=0;entryX=0.75;entryY=0;entryDx=0;entryDy=0;strokeColor=#23445D;" edge="1" parent="1" source="s3C25jFBt-9yLEdoIZRi-16" target="s3C25jFBt-9yLEdoIZRi-6">
          <mxGeometry relative="1" as="geometry" />
        </mxCell>
        <mxCell id="s3C25jFBt-9yLEdoIZRi-70" style="edgeStyle=orthogonalEdgeStyle;rounded=0;orthogonalLoop=1;jettySize=auto;html=1;exitX=0.5;exitY=0;exitDx=0;exitDy=0;entryX=1;entryY=0.75;entryDx=0;entryDy=0;strokeColor=#23445D;" edge="1" parent="1" source="s3C25jFBt-9yLEdoIZRi-16" target="2ed32ef02a7f4228-2">
          <mxGeometry relative="1" as="geometry" />
        </mxCell>
        <mxCell id="s3C25jFBt-9yLEdoIZRi-16" value="&lt;div data-darkreader-inline-bgcolor=&quot;&quot; data-darkreader-inline-bgimage=&quot;&quot; style=&quot;box-sizing: border-box; width: 100%; background: rgb(228, 228, 228); padding: 2px; --darkreader-inline-bgimage: initial; --darkreader-inline-bgcolor: #272b2c;&quot;&gt;FoodShops&lt;br&gt;&lt;/div&gt;&lt;table style=&quot;width:100%;font-size:1em;&quot; cellpadding=&quot;2&quot; cellspacing=&quot;0&quot;&gt;&lt;tbody&gt;&lt;tr&gt;&lt;td&gt;rating: number&lt;br&gt;discount: number&lt;br style=&quot;border-color: var(--darkreader-border--border-color); --darkreader-inline-border: var(--darkreader-border--darkreader-border--border-color);&quot; data-darkreader-inline-border=&quot;&quot;&gt;size: Type.id&lt;br&gt;quantity: number&lt;br data-darkreader-inline-border=&quot;&quot; style=&quot;border-color: var(--darkreader-border--border-color); --darkreader-inline-border: var(--darkreader-border--darkreader-border--border-color);&quot;&gt;sold: number&lt;br&gt;&lt;/td&gt;&lt;td&gt;&lt;br&gt;&lt;/td&gt;&lt;/tr&gt;&lt;tr&gt;&lt;td&gt;&lt;br&gt;&lt;/td&gt;&lt;td&gt;&lt;/td&gt;&lt;td&gt;&lt;br&gt;&lt;/td&gt;&lt;td&gt;&lt;br&gt;&lt;/td&gt;&lt;td&gt;&lt;br&gt;&lt;/td&gt;&lt;td&gt;&lt;br&gt;&lt;/td&gt;&lt;/tr&gt;&lt;/tbody&gt;&lt;/table&gt;" style="verticalAlign=top;align=left;overflow=fill;html=1;rounded=0;shadow=0;comic=0;labelBackgroundColor=none;strokeWidth=1;fontFamily=Verdana;fontSize=12;fillColor=#182E3E;strokeColor=#FFFFFF;fontColor=#FFFFFF;" vertex="1" parent="1">
          <mxGeometry x="-790" y="380" width="180" height="110" as="geometry" />
        </mxCell>
        <mxCell id="s3C25jFBt-9yLEdoIZRi-46" style="edgeStyle=orthogonalEdgeStyle;rounded=0;orthogonalLoop=1;jettySize=auto;html=1;exitX=0.5;exitY=1;exitDx=0;exitDy=0;entryX=0.5;entryY=0;entryDx=0;entryDy=0;labelBackgroundColor=none;fontColor=default;strokeColor=#23445D;" edge="1" parent="1" source="s3C25jFBt-9yLEdoIZRi-17" target="s3C25jFBt-9yLEdoIZRi-45">
          <mxGeometry relative="1" as="geometry" />
        </mxCell>
        <mxCell id="s3C25jFBt-9yLEdoIZRi-142" style="edgeStyle=orthogonalEdgeStyle;rounded=0;orthogonalLoop=1;jettySize=auto;html=1;exitX=1;exitY=0;exitDx=0;exitDy=0;entryX=0.004;entryY=0.171;entryDx=0;entryDy=0;entryPerimeter=0;strokeColor=#23445D;" edge="1" parent="1" source="s3C25jFBt-9yLEdoIZRi-17" target="2ed32ef02a7f4228-1">
          <mxGeometry relative="1" as="geometry" />
        </mxCell>
        <mxCell id="s3C25jFBt-9yLEdoIZRi-17" value="&lt;div data-darkreader-inline-bgcolor=&quot;&quot; data-darkreader-inline-bgimage=&quot;&quot; style=&quot;box-sizing: border-box; width: 100%; background: rgb(228, 228, 228); padding: 2px; --darkreader-inline-bgimage: initial; --darkreader-inline-bgcolor: #272b2c;&quot;&gt;HomeServiceOrder&lt;br&gt;&lt;/div&gt;&lt;table style=&quot;width:100%;font-size:1em;&quot; cellpadding=&quot;2&quot; cellspacing=&quot;0&quot;&gt;&lt;tbody&gt;&lt;tr&gt;&lt;td&gt;&lt;br&gt;&lt;/td&gt;&lt;td&gt;_id: Type.id &amp;lt;PK&amp;gt;&lt;br&gt;&lt;/td&gt;&lt;/tr&gt;&lt;tr&gt;&lt;td&gt;&lt;br&gt;&lt;/td&gt;&lt;td&gt;userId: Type.id &amp;lt;FK1&amp;gt;&amp;nbsp;&lt;br&gt;&lt;/td&gt;&lt;/tr&gt;&lt;tr&gt;&lt;td&gt;&lt;/td&gt;&lt;td&gt;workers: userIds[]&lt;br&gt;totalPrice: number&lt;br&gt;status: enum&lt;br&gt;isDone: boolean&lt;br&gt;isArrived: boolean&lt;br&gt;arrivedAt: Date&lt;br&gt;phone: string&lt;br&gt;address: Type.id&lt;br&gt;serviceTime: Date&lt;br&gt;timestamp: Date&lt;/td&gt;&lt;td&gt;&lt;br&gt;&lt;/td&gt;&lt;td&gt;&lt;br&gt;&lt;/td&gt;&lt;td&gt;&lt;br&gt;&lt;/td&gt;&lt;td&gt;&lt;br&gt;&lt;/td&gt;&lt;td&gt;&lt;br&gt;&lt;/td&gt;&lt;td&gt;&lt;br&gt;&lt;/td&gt;&lt;td&gt;&lt;br&gt;&lt;/td&gt;&lt;td&gt;&lt;br&gt;&lt;/td&gt;&lt;/tr&gt;&lt;/tbody&gt;&lt;/table&gt;" style="verticalAlign=top;align=left;overflow=fill;html=1;rounded=0;shadow=0;comic=0;labelBackgroundColor=none;strokeWidth=1;fontFamily=Verdana;fontSize=12;fillColor=#182E3E;strokeColor=#FFFFFF;fontColor=#FFFFFF;" vertex="1" parent="1">
          <mxGeometry x="-2325.25" y="-55" width="240" height="205" as="geometry" />
        </mxCell>
        <mxCell id="s3C25jFBt-9yLEdoIZRi-143" style="edgeStyle=orthogonalEdgeStyle;rounded=0;orthogonalLoop=1;jettySize=auto;html=1;exitX=0.5;exitY=1;exitDx=0;exitDy=0;entryX=0.5;entryY=0;entryDx=0;entryDy=0;strokeColor=#23445D;" edge="1" parent="1" source="s3C25jFBt-9yLEdoIZRi-19" target="s3C25jFBt-9yLEdoIZRi-140">
          <mxGeometry relative="1" as="geometry" />
        </mxCell>
        <mxCell id="s3C25jFBt-9yLEdoIZRi-144" style="edgeStyle=orthogonalEdgeStyle;rounded=0;orthogonalLoop=1;jettySize=auto;html=1;exitX=1;exitY=0.5;exitDx=0;exitDy=0;entryX=0;entryY=0.5;entryDx=0;entryDy=0;strokeColor=#23445D;" edge="1" parent="1" source="s3C25jFBt-9yLEdoIZRi-19" target="2ed32ef02a7f4228-1">
          <mxGeometry relative="1" as="geometry" />
        </mxCell>
        <mxCell id="s3C25jFBt-9yLEdoIZRi-19" value="&lt;div data-darkreader-inline-bgcolor=&quot;&quot; data-darkreader-inline-bgimage=&quot;&quot; style=&quot;box-sizing: border-box; width: 100%; background: rgb(228, 228, 228); padding: 2px; --darkreader-inline-bgimage: initial; --darkreader-inline-bgcolor: #272b2c;&quot;&gt;transferMoney&lt;/div&gt;&lt;table style=&quot;width:100%;font-size:1em;&quot; cellpadding=&quot;2&quot; cellspacing=&quot;0&quot;&gt;&lt;tbody&gt;&lt;tr&gt;&lt;td&gt;&lt;br&gt;&lt;/td&gt;&lt;td&gt;_id: Type.id &amp;lt;PK&amp;gt;&lt;br&gt;&lt;/td&gt;&lt;/tr&gt;&lt;tr&gt;&lt;td&gt;&lt;br&gt;&lt;/td&gt;&lt;td&gt;from: Type.id &amp;lt;FK1&amp;gt;&amp;nbsp;&lt;br&gt;&lt;/td&gt;&lt;/tr&gt;&lt;tr&gt;&lt;td&gt;&lt;/td&gt;&lt;td&gt;to: Type.id &amp;lt;FK2&amp;gt;&lt;br&gt;amount: number&lt;br&gt;timestamp: Date&lt;br&gt;status: enum&lt;/td&gt;&lt;td&gt;&lt;br&gt;&lt;/td&gt;&lt;td&gt;&lt;br&gt;&lt;/td&gt;&lt;td&gt;&lt;br&gt;&lt;/td&gt;&lt;td&gt;&lt;br&gt;&lt;/td&gt;&lt;td&gt;&lt;br&gt;&lt;/td&gt;&lt;td&gt;&lt;br&gt;&lt;/td&gt;&lt;td&gt;&lt;br&gt;&lt;/td&gt;&lt;td&gt;&lt;br&gt;&lt;/td&gt;&lt;/tr&gt;&lt;/tbody&gt;&lt;/table&gt;" style="verticalAlign=top;align=left;overflow=fill;html=1;rounded=0;shadow=0;comic=0;labelBackgroundColor=none;strokeWidth=1;fontFamily=Verdana;fontSize=12;fillColor=#182E3E;strokeColor=#FFFFFF;fontColor=#FFFFFF;" vertex="1" parent="1">
          <mxGeometry x="-1980" y="-298.75" width="195" height="127.5" as="geometry" />
        </mxCell>
        <mxCell id="s3C25jFBt-9yLEdoIZRi-25" value="&lt;div data-darkreader-inline-bgcolor=&quot;&quot; data-darkreader-inline-bgimage=&quot;&quot; style=&quot;box-sizing: border-box; width: 100%; background: rgb(228, 228, 228); padding: 2px; --darkreader-inline-bgimage: initial; --darkreader-inline-bgcolor: #272b2c;&quot;&gt;Chat&lt;br&gt;&lt;/div&gt;&lt;table style=&quot;width:100%;font-size:1em;&quot; cellpadding=&quot;2&quot; cellspacing=&quot;0&quot;&gt;&lt;tbody&gt;&lt;tr&gt;&lt;td&gt;&lt;br&gt;&lt;/td&gt;&lt;td&gt;_id: Type.id &amp;lt;PK&amp;gt;&lt;br&gt;members: userIds[]&lt;br&gt;lastMessageAt: Date&lt;/td&gt;&lt;/tr&gt;&lt;/tbody&gt;&lt;/table&gt;" style="verticalAlign=top;align=left;overflow=fill;html=1;rounded=0;shadow=0;comic=0;labelBackgroundColor=none;strokeWidth=1;fontFamily=Verdana;fontSize=12;fillColor=#182E3E;strokeColor=#FFFFFF;fontColor=#FFFFFF;" vertex="1" parent="1">
          <mxGeometry x="-1950" y="-660" width="180" height="90" as="geometry" />
        </mxCell>
        <mxCell id="s3C25jFBt-9yLEdoIZRi-39" value="user&lt;br&gt;&lt;br&gt;vendor&lt;br&gt;&lt;br&gt;admin&lt;br&gt;&lt;br&gt;tech support&lt;br&gt;&lt;br&gt;sales&lt;br&gt;&amp;nbsp;&lt;br&gt;riders" style="whiteSpace=wrap;html=1;aspect=fixed;align=center;labelBackgroundColor=none;fillColor=#182E3E;strokeColor=#FFFFFF;fontColor=#FFFFFF;" vertex="1" parent="1">
          <mxGeometry x="-1450" y="-210" width="170" height="170" as="geometry" />
        </mxCell>
        <mxCell id="s3C25jFBt-9yLEdoIZRi-41" value="access&lt;br&gt;&lt;br&gt;refresh&lt;br&gt;&lt;br&gt;resetPassword&lt;br&gt;&lt;br&gt;verifyEmail" style="whiteSpace=wrap;html=1;aspect=fixed;align=center;labelBackgroundColor=none;fillColor=#182E3E;strokeColor=#FFFFFF;fontColor=#FFFFFF;" vertex="1" parent="1">
          <mxGeometry x="-1820" y="180" width="130" height="130" as="geometry" />
        </mxCell>
        <mxCell id="s3C25jFBt-9yLEdoIZRi-43" value="Not Processed&lt;br&gt;&lt;br&gt;Processing&lt;br&gt;&lt;br&gt;Shipped&lt;br&gt;&lt;br&gt;Delivered&lt;br&gt;&lt;br&gt;Cancelled" style="whiteSpace=wrap;html=1;aspect=fixed;align=center;labelBackgroundColor=none;fillColor=#182E3E;strokeColor=#FFFFFF;fontColor=#FFFFFF;" vertex="1" parent="1">
          <mxGeometry x="-2519" y="-370" width="170" height="170" as="geometry" />
        </mxCell>
        <mxCell id="s3C25jFBt-9yLEdoIZRi-45" value="Pending&lt;br&gt;&lt;br&gt;Negotiating&lt;br&gt;&lt;br&gt;Done&lt;br&gt;&lt;br&gt;Cancelled" style="whiteSpace=wrap;html=1;aspect=fixed;align=center;labelBackgroundColor=none;fillColor=#182E3E;strokeColor=#FFFFFF;fontColor=#FFFFFF;" vertex="1" parent="1">
          <mxGeometry x="-2294" y="225" width="130" height="130" as="geometry" />
        </mxCell>
        <mxCell id="s3C25jFBt-9yLEdoIZRi-52" value="&lt;div data-darkreader-inline-bgcolor=&quot;&quot; data-darkreader-inline-bgimage=&quot;&quot; style=&quot;box-sizing: border-box; width: 100%; background: rgb(228, 228, 228); padding: 2px; --darkreader-inline-bgimage: initial; --darkreader-inline-bgcolor: #272b2c;&quot;&gt;Coordinate&lt;br&gt;&lt;/div&gt;&lt;table style=&quot;width: 100% ; font-size: 1em&quot; cellpadding=&quot;2&quot; cellspacing=&quot;0&quot;&gt;&lt;tbody&gt;&lt;tr&gt;&lt;td&gt;&lt;br&gt;&lt;/td&gt;&lt;td&gt;type: string (&#39;point&#39;)&lt;br&gt;coordinates: number[]&lt;/td&gt;&lt;/tr&gt;&lt;tr&gt;&lt;td&gt;&lt;br&gt;&lt;/td&gt;&lt;td&gt;&lt;table data-darkreader-inline-border=&quot;&quot; style=&quot;border-color: var(--darkreader-border--border-color); font-size: 1em; width: 348.362px; --darkreader-inline-border: var(--darkreader-border--darkreader-border--border-color);&quot; cellpadding=&quot;2&quot; cellspacing=&quot;0&quot;&gt;&lt;tbody data-darkreader-inline-border=&quot;&quot; style=&quot;border-color: var(--darkreader-border--border-color); --darkreader-inline-border: var(--darkreader-border--darkreader-border--border-color);&quot;&gt;&lt;tr data-darkreader-inline-border=&quot;&quot; style=&quot;border-color: var(--darkreader-border--border-color); --darkreader-inline-border: var(--darkreader-border--darkreader-border--border-color);&quot;&gt;&lt;td data-darkreader-inline-border=&quot;&quot; style=&quot;border-color: var(--darkreader-border--border-color); --darkreader-inline-border: var(--darkreader-border--darkreader-border--border-color);&quot;&gt;&lt;br&gt;&lt;br&gt;&lt;br&gt;&lt;/td&gt;&lt;/tr&gt;&lt;/tbody&gt;&lt;/table&gt;&lt;/td&gt;&lt;td&gt;&lt;br&gt;&lt;/td&gt;&lt;td&gt;&lt;br&gt;&lt;/td&gt;&lt;td&gt;&lt;/td&gt;&lt;td&gt;&lt;br&gt;&lt;/td&gt;&lt;td&gt;&lt;br&gt;&lt;/td&gt;&lt;td&gt;&lt;br&gt;&lt;/td&gt;&lt;td&gt;&lt;br&gt;&lt;/td&gt;&lt;/tr&gt;&lt;/tbody&gt;&lt;/table&gt;" style="verticalAlign=top;align=left;overflow=fill;html=1;rounded=0;shadow=0;comic=0;labelBackgroundColor=none;strokeWidth=1;fontFamily=Verdana;fontSize=12;fillColor=#182E3E;strokeColor=#FFFFFF;fontColor=#FFFFFF;" vertex="1" parent="1">
          <mxGeometry x="-1460" y="-510" width="190" height="60" as="geometry" />
        </mxCell>
        <mxCell id="s3C25jFBt-9yLEdoIZRi-55" value="InternalWallet&lt;br&gt;&lt;br&gt;Cash&lt;br&gt;" style="whiteSpace=wrap;html=1;aspect=fixed;align=center;labelBackgroundColor=none;fillColor=#182E3E;strokeColor=#FFFFFF;fontColor=#FFFFFF;" vertex="1" parent="1">
          <mxGeometry x="-1420" y="-335" width="100" height="100" as="geometry" />
        </mxCell>
        <mxCell id="s3C25jFBt-9yLEdoIZRi-140" value="Pending&lt;br&gt;&lt;br&gt;Done&lt;br&gt;&lt;br&gt;Failed" style="whiteSpace=wrap;html=1;aspect=fixed;align=center;labelBackgroundColor=none;fillColor=#182E3E;strokeColor=#FFFFFF;fontColor=#FFFFFF;" vertex="1" parent="1">
          <mxGeometry x="-1933.75" y="-130" width="102.5" height="102.5" as="geometry" />
        </mxCell>
      </root>
    </mxGraphModel>
  </diagram>
</mxfile>
